{
    "asset" : {
        "generator" : "Khronos glTF Blender I/O v1.7.33",
        "version" : "2.0"
    },
    "scene" : 0,
    "scenes" : [
        {
            "name" : "Scene",
            "nodes" : [
                0,
                1,
                2,
                3
            ]
        }
    ],
    "nodes" : [
        {
            "mesh" : 0,
            "name" : "Case Right Color",
            "scale" : [
                1,
                0.9599999785423279,
                1
            ]
        },
        {
            "mesh" : 1,
            "name" : "Case Right Plastic",
            "rotation" : [
                1,
                0,
                0,
                -1.6292068494294654e-07
            ],
            "translation" : [
                0,
                0,
                1.8287999629974365
            ]
        },
        {
            "mesh" : 2,
            "name" : "Case Right Spoke",
            "rotation" : [
                0.5,
                0.5,
                -0.5,
                0.4999999701976776
            ],
            "scale" : [
                0.25,
                0.125,
                0.25
            ],
            "translation" : [
                0.02539999969303608,
                0,
                0
            ]
        },
        {
            "mesh" : 3,
            "name" : "Case Left Plastic",
            "rotation" : [
                0.8660253882408142,
                0,
                -0.5,
                -3.475699941191124e-07
            ],
            "scale" : [
                0.20655399560928345,
                0.25,
                0.25
            ],
            "translation" : [
                -0.7111999988555908,
                0,
                0.45719999074935913
            ]
        }
    ],
    "materials" : [
        {
            "doubleSided" : true,
            "name" : "Material",
            "pbrMetallicRoughness" : {
                "baseColorFactor" : [
                    0.800000011920929,
                    0.800000011920929,
                    0.800000011920929,
                    1
                ],
                "metallicFactor" : 0,
                "roughnessFactor" : 0.4000000059604645
            }
        },
        {
            "doubleSided" : true,
            "name" : "Material.002",
            "pbrMetallicRoughness" : {
                "baseColorFactor" : [
                    0.800000011920929,
                    0.800000011920929,
                    0.800000011920929,
                    1
                ],
                "metallicFactor" : 0,
                "roughnessFactor" : 0.4000000059604645
            }
        },
        {
            "doubleSided" : true,
            "name" : "Material.004",
            "pbrMetallicRoughness" : {
                "baseColorFactor" : [
                    0.800000011920929,
                    0.800000011920929,
                    0.800000011920929,
                    1
                ],
                "metallicFactor" : 0,
                "roughnessFactor" : 0.4000000059604645
            }
        }
    ],
    "meshes" : [
        {
            "name" : "Cube",
            "primitives" : [
                {
                    "attributes" : {
                        "POSITION" : 0,
                        "NORMAL" : 1,
                        "TEXCOORD_0" : 2
                    },
                    "indices" : 3,
                    "material" : 0
                }
            ]
        },
        {
            "name" : "Cube.002",
            "primitives" : [
                {
                    "attributes" : {
                        "POSITION" : 4,
                        "NORMAL" : 5,
                        "TEXCOORD_0" : 6
                    },
                    "indices" : 7,
                    "material" : 1
                }
            ]
        },
        {
            "name" : "Cylinder.005",
            "primitives" : [
                {
                    "attributes" : {
                        "POSITION" : 8,
                        "NORMAL" : 9,
                        "TEXCOORD_0" : 10
                    },
                    "indices" : 11
                }
            ]
        },
        {
            "name" : "Cube.007",
            "primitives" : [
                {
                    "attributes" : {
                        "POSITION" : 12,
                        "NORMAL" : 13,
                        "TEXCOORD_0" : 14
                    },
                    "indices" : 15,
                    "material" : 2
                }
            ]
        }
    ],
    "accessors" : [
        {
            "bufferView" : 0,
            "componentType" : 5126,
            "count" : 130,
            "max" : [
                0.10160002112388611,
                0.7483254075050354,
                0.9143999814987183
            ],
            "min" : [
                -0.02539999969303608,
                -0.7483254075050354,
                -0.7874000072479248
            ],
            "type" : "VEC3"
        },
        {
            "bufferView" : 1,
            "componentType" : 5126,
            "count" : 130,
            "type" : "VEC3"
        },
        {
            "bufferView" : 2,
            "componentType" : 5126,
            "count" : 130,
            "type" : "VEC2"
        },
        {
            "bufferView" : 3,
            "componentType" : 5123,
            "count" : 288,
            "type" : "SCALAR"
        },
        {
            "bufferView" : 4,
            "componentType" : 5126,
            "count" : 537,
            "max" : [
                0.10159999877214432,
                0.7620012760162354,
                2.6416001319885254
            ],
            "min" : [
                -0.038100000470876694,
                -0.7619999647140503,
                0.9143998026847839
            ],
            "type" : "VEC3"
        },
        {
            "bufferView" : 5,
            "componentType" : 5126,
            "count" : 537,
            "type" : "VEC3"
        },
        {
            "bufferView" : 6,
            "componentType" : 5126,
            "count" : 537,
            "type" : "VEC2"
        },
        {
            "bufferView" : 7,
            "componentType" : 5123,
            "count" : 966,
            "type" : "SCALAR"
        },
        {
            "bufferView" : 8,
            "componentType" : 5126,
            "count" : 384,
            "max" : [
                0.30480000376701355,
                0.30480000376701355,
                0.30480000376701355
            ],
            "min" : [
                -0.30480000376701355,
                -0.30480000376701355,
                -0.30480000376701355
            ],
            "type" : "VEC3"
        },
        {
            "bufferView" : 9,
            "componentType" : 5126,
            "count" : 384,
            "type" : "VEC3"
        },
        {
            "bufferView" : 10,
            "componentType" : 5126,
            "count" : 384,
            "type" : "VEC2"
        },
        {
            "bufferView" : 11,
            "componentType" : 5123,
            "count" : 756,
            "type" : "SCALAR"
        },
        {
            "bufferView" : 12,
            "componentType" : 5126,
            "count" : 876,
            "max" : [
                0.4918810725212097,
                3.0522923469543457,
                -3.149599075317383
            ],
            "min" : [
                -0.18445540964603424,
                -3.0437066555023193,
                -10.058401107788086
            ],
            "type" : "VEC3"
        },
        {
            "bufferView" : 13,
            "componentType" : 5126,
            "count" : 876,
            "type" : "VEC3"
        },
        {
            "bufferView" : 14,
            "componentType" : 5126,
            "count" : 876,
            "type" : "VEC2"
        },
        {
            "bufferView" : 15,
            "componentType" : 5123,
            "count" : 1650,
            "type" : "SCALAR"
        }
    ],
    "bufferViews" : [
        {
            "buffer" : 0,
            "byteLength" : 1560,
            "byteOffset" : 0
        },
        {
            "buffer" : 0,
            "byteLength" : 1560,
            "byteOffset" : 1560
        },
        {
            "buffer" : 0,
            "byteLength" : 1040,
            "byteOffset" : 3120
        },
        {
            "buffer" : 0,
            "byteLength" : 576,
            "byteOffset" : 4160
        },
        {
            "buffer" : 0,
            "byteLength" : 6444,
            "byteOffset" : 4736
        },
        {
            "buffer" : 0,
            "byteLength" : 6444,
            "byteOffset" : 11180
        },
        {
            "buffer" : 0,
            "byteLength" : 4296,
            "byteOffset" : 17624
        },
        {
            "buffer" : 0,
            "byteLength" : 1932,
            "byteOffset" : 21920
        },
        {
            "buffer" : 0,
            "byteLength" : 4608,
            "byteOffset" : 23852
        },
        {
            "buffer" : 0,
            "byteLength" : 4608,
            "byteOffset" : 28460
        },
        {
            "buffer" : 0,
            "byteLength" : 3072,
            "byteOffset" : 33068
        },
        {
            "buffer" : 0,
            "byteLength" : 1512,
            "byteOffset" : 36140
        },
        {
            "buffer" : 0,
            "byteLength" : 10512,
            "byteOffset" : 37652
        },
        {
            "buffer" : 0,
            "byteLength" : 10512,
            "byteOffset" : 48164
        },
        {
            "buffer" : 0,
            "byteLength" : 7008,
            "byteOffset" : 58676
        },
        {
            "buffer" : 0,
            "byteLength" : 3300,
            "byteOffset" : 65684
        }
    ],
    "buffers" : [
        {
            "byteLength" : 68984,
            "uri" : "data:application/octet-stream;base64,"
        }
    ]
}
