{
    "asset" : {
        "generator" : "Khronos glTF Blender I/O v1.7.33",
        "version" : "2.0"
    },
    "scene" : 0,
    "scenes" : [
        {
            "name" : "Scene",
            "nodes" : [
                0,
                1,
                2,
                3,
                4,
                5
            ]
        }
    ],
    "nodes" : [
        {
            "mesh" : 0,
            "name" : "Case Right Plastic",
            "rotation" : [
                0.7071068286895752,
                0,
                0.7071068286895752,
                -1.9949604279645428e-07
            ],
            "translation" : [
                0,
                0,
                -0.02539999969303608
            ]
        },
        {
            "mesh" : 1,
            "name" : "Case Right Color",
            "rotation" : [
                0.7071068286895752,
                0,
                0,
                0.7071068286895752
            ],
            "scale" : [
                0.25,
                0.125,
                0.25
            ],
            "translation" : [
                0,
                0,
                -0.02540000155568123
            ]
        },
        {
            "mesh" : 2,
            "name" : "CD Disk",
            "rotation" : [
                0,
                0.7071068286895752,
                -0.7071068286895752,
                -1.1520232590100932e-07
            ],
            "scale" : [
                2.3999998569488525,
                1,
                2.3999998569488525
            ],
            "translation" : [
                0,
                0,
                0.012233160436153412
            ]
        },
        {
            "mesh" : 3,
            "name" : "Case Left Plastic",
            "rotation" : [
                0.965925931930542,
                0,
                0.258819043636322,
                -5.028113605476392e-07
            ],
            "scale" : [
                0.20655399560928345,
                0.25,
                0.25
            ],
            "translation" : [
                0.0010188859887421131,
                0,
                0.0029932050965726376
            ]
        },
        {
            "mesh" : 4,
            "name" : "Paper",
            "rotation" : [
                0.1830126941204071,
                -0.1830126792192459,
                -0.6830126643180847,
                0.6830127239227295
            ],
            "scale" : [
                2.4149999618530273,
                1,
                2.5
            ],
            "translation" : [
                0.0010188263840973377,
                0,
                0.002993206959217787
            ]
        },
        {
            "mesh" : 5,
            "name" : "CD Disk Center",
            "rotation" : [
                0,
                0.7071068286895752,
                -0.7071068286895752,
                -1.1520232590100932e-07
            ],
            "scale" : [
                0.550000011920929,
                0.25812268257141113,
                0.550000011920929
            ],
            "translation" : [
                0,
                0,
                0.012233160436153412
            ]
        }
    ],
    "materials" : [
        {
            "doubleSided" : true,
            "name" : "Material.002",
            "pbrMetallicRoughness" : {
                "baseColorFactor" : [
                    0.800000011920929,
                    0.800000011920929,
                    0.800000011920929,
                    1
                ],
                "metallicFactor" : 0,
                "roughnessFactor" : 0.4000000059604645
            }
        },
        {
            "doubleSided" : true,
            "name" : "Material",
            "pbrMetallicRoughness" : {
                "baseColorFactor" : [
                    0.800000011920929,
                    0.800000011920929,
                    0.800000011920929,
                    1
                ],
                "metallicFactor" : 0,
                "roughnessFactor" : 0.4000000059604645
            }
        },
        {
            "doubleSided" : true,
            "name" : "Material.004",
            "pbrMetallicRoughness" : {
                "baseColorFactor" : [
                    0.800000011920929,
                    0.800000011920929,
                    0.800000011920929,
                    1
                ],
                "metallicFactor" : 0,
                "roughnessFactor" : 0.4000000059604645
            }
        }
    ],
    "meshes" : [
        {
            "name" : "Cube.002",
            "primitives" : [
                {
                    "attributes" : {
                        "POSITION" : 0,
                        "NORMAL" : 1,
                        "TEXCOORD_0" : 2
                    },
                    "indices" : 3,
                    "material" : 0
                }
            ]
        },
        {
            "name" : "Cylinder.005",
            "primitives" : [
                {
                    "attributes" : {
                        "POSITION" : 4,
                        "NORMAL" : 5,
                        "TEXCOORD_0" : 6
                    },
                    "indices" : 7,
                    "material" : 1
                }
            ]
        },
        {
            "name" : "Circle",
            "primitives" : [
                {
                    "attributes" : {
                        "POSITION" : 8,
                        "NORMAL" : 9,
                        "TEXCOORD_0" : 10
                    },
                    "indices" : 11
                }
            ]
        },
        {
            "name" : "Cube.007",
            "primitives" : [
                {
                    "attributes" : {
                        "POSITION" : 12,
                        "NORMAL" : 13,
                        "TEXCOORD_0" : 14
                    },
                    "indices" : 15,
                    "material" : 2
                }
            ]
        },
        {
            "name" : "Plane",
            "primitives" : [
                {
                    "attributes" : {
                        "POSITION" : 16,
                        "NORMAL" : 17,
                        "TEXCOORD_0" : 18
                    },
                    "indices" : 19
                }
            ]
        },
        {
            "name" : "Circle.001",
            "primitives" : [
                {
                    "attributes" : {
                        "POSITION" : 20,
                        "NORMAL" : 21,
                        "TEXCOORD_0" : 22
                    },
                    "indices" : 23
                }
            ]
        }
    ],
    "accessors" : [
        {
            "bufferView" : 0,
            "componentType" : 5126,
            "count" : 575,
            "max" : [
                0.10159999877214432,
                0.7620006799697876,
                0.8128000497817993
            ],
            "min" : [
                -0.038100000470876694,
                -0.762000560760498,
                -0.9144002795219421
            ],
            "type" : "VEC3"
        },
        {
            "bufferView" : 1,
            "componentType" : 5126,
            "count" : 575,
            "type" : "VEC3"
        },
        {
            "bufferView" : 2,
            "componentType" : 5126,
            "count" : 575,
            "type" : "VEC2"
        },
        {
            "bufferView" : 3,
            "componentType" : 5123,
            "count" : 1044,
            "type" : "SCALAR"
        },
        {
            "bufferView" : 4,
            "componentType" : 5126,
            "count" : 1737,
            "max" : [
                3.149600028991699,
                0.8128005862236023,
                2.8448002338409424
            ],
            "min" : [
                -3.555999755859375,
                -0.203200563788414,
                -2.848658561706543
            ],
            "type" : "VEC3"
        },
        {
            "bufferView" : 5,
            "componentType" : 5126,
            "count" : 1737,
            "type" : "VEC3"
        },
        {
            "bufferView" : 6,
            "componentType" : 5126,
            "count" : 1737,
            "type" : "VEC2"
        },
        {
            "bufferView" : 7,
            "componentType" : 5123,
            "count" : 3468,
            "type" : "SCALAR"
        },
        {
            "bufferView" : 8,
            "componentType" : 5126,
            "count" : 768,
            "max" : [
                0.30480000376701355,
                0.015506786294281483,
                0.30480000376701355
            ],
            "min" : [
                -0.30480000376701355,
                0.012458786368370056,
                -0.30480000376701355
            ],
            "type" : "VEC3"
        },
        {
            "bufferView" : 9,
            "componentType" : 5126,
            "count" : 768,
            "type" : "VEC3"
        },
        {
            "bufferView" : 10,
            "componentType" : 5126,
            "count" : 768,
            "type" : "VEC2"
        },
        {
            "bufferView" : 11,
            "componentType" : 5123,
            "count" : 1524,
            "type" : "SCALAR"
        },
        {
            "bufferView" : 12,
            "componentType" : 5126,
            "count" : 886,
            "max" : [
                -3.1466193199157715,
                3.052293539047241,
                -1.6003297567367554
            ],
            "min" : [
                -3.822955846786499,
                -3.043705463409424,
                -8.50913143157959
            ],
            "type" : "VEC3"
        },
        {
            "bufferView" : 13,
            "componentType" : 5126,
            "count" : 886,
            "type" : "VEC3"
        },
        {
            "bufferView" : 14,
            "componentType" : 5126,
            "count" : 886,
            "type" : "VEC2"
        },
        {
            "bufferView" : 15,
            "componentType" : 5123,
            "count" : 1650,
            "type" : "SCALAR"
        },
        {
            "bufferView" : 16,
            "componentType" : 5126,
            "count" : 24,
            "max" : [
                0.30479997396469116,
                -0.7385660409927368,
                0.8296763896942139
            ],
            "min" : [
                -0.30480003356933594,
                -0.741614043712616,
                0.22007638216018677
            ],
            "type" : "VEC3"
        },
        {
            "bufferView" : 17,
            "componentType" : 5126,
            "count" : 24,
            "type" : "VEC3"
        },
        {
            "bufferView" : 18,
            "componentType" : 5126,
            "count" : 24,
            "type" : "VEC2"
        },
        {
            "bufferView" : 19,
            "componentType" : 5123,
            "count" : 36,
            "type" : "SCALAR"
        },
        {
            "bufferView" : 20,
            "componentType" : 5126,
            "count" : 128,
            "max" : [
                0.30480000376701355,
                0.012458786368370056,
                0.30480000376701355
            ],
            "min" : [
                -0.30480000376701355,
                0.012458786368370056,
                -0.30480000376701355
            ],
            "type" : "VEC3"
        },
        {
            "bufferView" : 21,
            "componentType" : 5126,
            "count" : 128,
            "type" : "VEC3"
        },
        {
            "bufferView" : 22,
            "componentType" : 5126,
            "count" : 128,
            "type" : "VEC2"
        },
        {
            "bufferView" : 23,
            "componentType" : 5123,
            "count" : 378,
            "type" : "SCALAR"
        }
    ],
    "bufferViews" : [
        {
            "buffer" : 0,
            "byteLength" : 6900,
            "byteOffset" : 0
        },
        {
            "buffer" : 0,
            "byteLength" : 6900,
            "byteOffset" : 6900
        },
        {
            "buffer" : 0,
            "byteLength" : 4600,
            "byteOffset" : 13800
        },
        {
            "buffer" : 0,
            "byteLength" : 2088,
            "byteOffset" : 18400
        },
        {
            "buffer" : 0,
            "byteLength" : 20844,
            "byteOffset" : 20488
        },
        {
            "buffer" : 0,
            "byteLength" : 20844,
            "byteOffset" : 41332
        },
        {
            "buffer" : 0,
            "byteLength" : 13896,
            "byteOffset" : 62176
        },
        {
            "buffer" : 0,
            "byteLength" : 6936,
            "byteOffset" : 76072
        },
        {
            "buffer" : 0,
            "byteLength" : 9216,
            "byteOffset" : 83008
        },
        {
            "buffer" : 0,
            "byteLength" : 9216,
            "byteOffset" : 92224
        },
        {
            "buffer" : 0,
            "byteLength" : 6144,
            "byteOffset" : 101440
        },
        {
            "buffer" : 0,
            "byteLength" : 3048,
            "byteOffset" : 107584
        },
        {
            "buffer" : 0,
            "byteLength" : 10632,
            "byteOffset" : 110632
        },
        {
            "buffer" : 0,
            "byteLength" : 10632,
            "byteOffset" : 121264
        },
        {
            "buffer" : 0,
            "byteLength" : 7088,
            "byteOffset" : 131896
        },
        {
            "buffer" : 0,
            "byteLength" : 3300,
            "byteOffset" : 138984
        },
        {
            "buffer" : 0,
            "byteLength" : 288,
            "byteOffset" : 142284
        },
        {
            "buffer" : 0,
            "byteLength" : 288,
            "byteOffset" : 142572
        },
        {
            "buffer" : 0,
            "byteLength" : 192,
            "byteOffset" : 142860
        },
        {
            "buffer" : 0,
            "byteLength" : 72,
            "byteOffset" : 143052
        },
        {
            "buffer" : 0,
            "byteLength" : 1536,
            "byteOffset" : 143124
        },
        {
            "buffer" : 0,
            "byteLength" : 1536,
            "byteOffset" : 144660
        },
        {
            "buffer" : 0,
            "byteLength" : 1024,
            "byteOffset" : 146196
        },
        {
            "buffer" : 0,
            "byteLength" : 756,
            "byteOffset" : 147220
        }
    ],
    "buffers" : [
        {
            "byteLength" : 147976,
            "uri" : "data:application/octet-stream;base64,"
        }
    ]
}
