{
    "asset" : {
        "generator" : "Khronos glTF Blender I/O v1.7.33",
        "version" : "2.0"
    },
    "scene" : 0,
    "scenes" : [
        {
            "name" : "Scene",
            "nodes" : [
                0,
                1,
                2,
                3,
                4,
                5,
                6,
                7,
                8
            ]
        }
    ],
    "nodes" : [
        {
            "mesh" : 0,
            "name" : "Paper",
            "rotation" : [
                0.1830126941204071,
                -0.1830126792192459,
                -0.6830126643180847,
                0.6830127239227295
            ],
            "scale" : [
                2.4149999618530273,
                1,
                2.5
            ],
            "translation" : [
                1.0550138540565968e-05,
                0,
                -0.004745585843920708
            ]
        },
        {
            "mesh" : 1,
            "name" : "Favorite Heart",
            "rotation" : [
                0.5963678359985352,
                0.326505571603775,
                -0.37992820143699646,
                0.627211332321167
            ],
            "scale" : [
                0.1456010490655899,
                0.07280052453279495,
                0.1456010490655899
            ],
            "translation" : [
                -1.0317755937576294,
                0.5429355502128601,
                0.2805171012878418
            ]
        },
        {
            "mesh" : 2,
            "name" : "Recommend Heart",
            "rotation" : [
                0.6272113919258118,
                0.37992820143699646,
                -0.3265056014060974,
                0.5963677763938904
            ],
            "scale" : [
                0.1456010490655899,
                0.07280052453279495,
                0.1456010490655899
            ],
            "translation" : [
                -1.040766954421997,
                0.3469691276550293,
                0.2966037690639496
            ]
        },
        {
            "mesh" : 3,
            "name" : "Case Right Plastic",
            "rotation" : [
                0.7071068286895752,
                0,
                0.7071068286895752,
                -1.9949604279645428e-07
            ],
            "translation" : [
                0,
                0,
                -0.02539999969303608
            ]
        },
        {
            "mesh" : 4,
            "name" : "Case Right Color",
            "rotation" : [
                0.7071068286895752,
                0,
                0,
                0.7071068286895752
            ],
            "scale" : [
                0.25,
                0.125,
                0.25
            ],
            "translation" : [
                0,
                0,
                -0.02540000155568123
            ]
        },
        {
            "mesh" : 5,
            "name" : "CD Disk",
            "rotation" : [
                0,
                0.7071068286895752,
                -0.7071068286895752,
                -1.1520232590100932e-07
            ],
            "scale" : [
                2.3999998569488525,
                1,
                2.3999998569488525
            ],
            "translation" : [
                0,
                0,
                0.012233160436153412
            ]
        },
        {
            "mesh" : 6,
            "name" : "Case Left Plastic",
            "rotation" : [
                0.965925931930542,
                0,
                0.258819043636322,
                -5.028113605476392e-07
            ],
            "scale" : [
                0.20655399560928345,
                0.25,
                0.25
            ],
            "translation" : [
                0.0010188859887421131,
                0,
                0.0029932050965726376
            ]
        },
        {
            "mesh" : 7,
            "name" : "Review Paper",
            "rotation" : [
                0.1830127090215683,
                -0.1830127090215683,
                -0.6830127239227295,
                0.6830126643180847
            ],
            "scale" : [
                2.4149999618530273,
                1,
                2.497161626815796
            ],
            "translation" : [
                -0.0018838983960449696,
                0,
                0.009226356633007526
            ]
        },
        {
            "mesh" : 8,
            "name" : "CD Disk Center",
            "rotation" : [
                0,
                0.7071068286895752,
                -0.7071068286895752,
                -1.1520232590100932e-07
            ],
            "scale" : [
                0.550000011920929,
                0.25812268257141113,
                0.550000011920929
            ],
            "translation" : [
                0,
                0,
                0.012233160436153412
            ]
        }
    ],
    "materials" : [
        {
            "doubleSided" : true,
            "name" : "Material.002",
            "pbrMetallicRoughness" : {
                "baseColorFactor" : [
                    0.800000011920929,
                    0.800000011920929,
                    0.800000011920929,
                    1
                ],
                "metallicFactor" : 0,
                "roughnessFactor" : 0.4000000059604645
            }
        },
        {
            "doubleSided" : true,
            "name" : "Material",
            "pbrMetallicRoughness" : {
                "baseColorFactor" : [
                    0.800000011920929,
                    0.800000011920929,
                    0.800000011920929,
                    1
                ],
                "metallicFactor" : 0,
                "roughnessFactor" : 0.4000000059604645
            }
        },
        {
            "doubleSided" : true,
            "name" : "Material.004",
            "pbrMetallicRoughness" : {
                "baseColorFactor" : [
                    0.800000011920929,
                    0.800000011920929,
                    0.800000011920929,
                    1
                ],
                "metallicFactor" : 0,
                "roughnessFactor" : 0.4000000059604645
            }
        },
        {
            "doubleSided" : true,
            "name" : "Material.001",
            "pbrMetallicRoughness" : {
                "baseColorFactor" : [
                    0.800000011920929,
                    0.800000011920929,
                    0.800000011920929,
                    1
                ],
                "metallicFactor" : 0,
                "roughnessFactor" : 0.5
            }
        }
    ],
    "meshes" : [
        {
            "name" : "Plane.001",
            "primitives" : [
                {
                    "attributes" : {
                        "POSITION" : 0,
                        "NORMAL" : 1,
                        "TEXCOORD_0" : 2
                    },
                    "indices" : 3
                }
            ]
        },
        {
            "name" : "Cylinder.001",
            "primitives" : [
                {
                    "attributes" : {
                        "POSITION" : 4,
                        "NORMAL" : 5,
                        "TEXCOORD_0" : 6
                    },
                    "indices" : 7
                }
            ]
        },
        {
            "name" : "Cylinder.006",
            "primitives" : [
                {
                    "attributes" : {
                        "POSITION" : 8,
                        "NORMAL" : 9,
                        "TEXCOORD_0" : 10
                    },
                    "indices" : 7
                }
            ]
        },
        {
            "name" : "Cube.002",
            "primitives" : [
                {
                    "attributes" : {
                        "POSITION" : 11,
                        "NORMAL" : 12,
                        "TEXCOORD_0" : 13
                    },
                    "indices" : 14,
                    "material" : 0
                }
            ]
        },
        {
            "name" : "Cylinder.005",
            "primitives" : [
                {
                    "attributes" : {
                        "POSITION" : 15,
                        "NORMAL" : 16,
                        "TEXCOORD_0" : 17
                    },
                    "indices" : 18,
                    "material" : 1
                }
            ]
        },
        {
            "name" : "Circle",
            "primitives" : [
                {
                    "attributes" : {
                        "POSITION" : 19,
                        "NORMAL" : 20,
                        "TEXCOORD_0" : 21
                    },
                    "indices" : 22
                }
            ]
        },
        {
            "name" : "Cube.007",
            "primitives" : [
                {
                    "attributes" : {
                        "POSITION" : 23,
                        "NORMAL" : 24,
                        "TEXCOORD_0" : 25
                    },
                    "indices" : 26,
                    "material" : 2
                }
            ]
        },
        {
            "name" : "Plane",
            "primitives" : [
                {
                    "attributes" : {
                        "POSITION" : 27,
                        "NORMAL" : 28,
                        "TEXCOORD_0" : 29
                    },
                    "indices" : 30,
                    "material" : 3
                }
            ]
        },
        {
            "name" : "Circle.001",
            "primitives" : [
                {
                    "attributes" : {
                        "POSITION" : 31,
                        "NORMAL" : 32,
                        "TEXCOORD_0" : 33
                    },
                    "indices" : 34
                }
            ]
        }
    ],
    "accessors" : [
        {
            "bufferView" : 0,
            "componentType" : 5126,
            "count" : 48,
            "max" : [
                0.3065597414970398,
                -0.7368062734603882,
                0.8314361572265625
            ],
            "min" : [
                -0.30655980110168457,
                -0.7433738112449646,
                0.24285805225372314
            ],
            "type" : "VEC3"
        },
        {
            "bufferView" : 1,
            "componentType" : 5126,
            "count" : 48,
            "type" : "VEC3"
        },
        {
            "bufferView" : 2,
            "componentType" : 5126,
            "count" : 48,
            "type" : "VEC2"
        },
        {
            "bufferView" : 3,
            "componentType" : 5123,
            "count" : 72,
            "type" : "SCALAR"
        },
        {
            "bufferView" : 4,
            "componentType" : 5126,
            "count" : 530,
            "max" : [
                0.6096000671386719,
                0.30480000376701355,
                0.6280522346496582
            ],
            "min" : [
                -0.6095999479293823,
                0.1684044897556305,
                -0.40925371646881104
            ],
            "type" : "VEC3"
        },
        {
            "bufferView" : 5,
            "componentType" : 5126,
            "count" : 530,
            "type" : "VEC3"
        },
        {
            "bufferView" : 6,
            "componentType" : 5126,
            "count" : 530,
            "type" : "VEC2"
        },
        {
            "bufferView" : 7,
            "componentType" : 5123,
            "count" : 1050,
            "type" : "SCALAR"
        },
        {
            "bufferView" : 8,
            "componentType" : 5126,
            "count" : 530,
            "max" : [
                0.6096000671386719,
                0.30480000376701355,
                0.6280522346496582
            ],
            "min" : [
                -0.6095999479293823,
                0.1684044897556305,
                -0.40925371646881104
            ],
            "type" : "VEC3"
        },
        {
            "bufferView" : 9,
            "componentType" : 5126,
            "count" : 530,
            "type" : "VEC3"
        },
        {
            "bufferView" : 10,
            "componentType" : 5126,
            "count" : 530,
            "type" : "VEC2"
        },
        {
            "bufferView" : 11,
            "componentType" : 5126,
            "count" : 575,
            "max" : [
                0.10159999877214432,
                0.7620006799697876,
                0.8128000497817993
            ],
            "min" : [
                -0.038100000470876694,
                -0.762000560760498,
                -0.9144002795219421
            ],
            "type" : "VEC3"
        },
        {
            "bufferView" : 12,
            "componentType" : 5126,
            "count" : 575,
            "type" : "VEC3"
        },
        {
            "bufferView" : 13,
            "componentType" : 5126,
            "count" : 575,
            "type" : "VEC2"
        },
        {
            "bufferView" : 14,
            "componentType" : 5123,
            "count" : 1044,
            "type" : "SCALAR"
        },
        {
            "bufferView" : 15,
            "componentType" : 5126,
            "count" : 1737,
            "max" : [
                3.149600028991699,
                0.8128005862236023,
                2.8448002338409424
            ],
            "min" : [
                -3.555999755859375,
                -0.203200563788414,
                -2.848658561706543
            ],
            "type" : "VEC3"
        },
        {
            "bufferView" : 16,
            "componentType" : 5126,
            "count" : 1737,
            "type" : "VEC3"
        },
        {
            "bufferView" : 17,
            "componentType" : 5126,
            "count" : 1737,
            "type" : "VEC2"
        },
        {
            "bufferView" : 18,
            "componentType" : 5123,
            "count" : 3468,
            "type" : "SCALAR"
        },
        {
            "bufferView" : 19,
            "componentType" : 5126,
            "count" : 768,
            "max" : [
                0.30480000376701355,
                0.015506786294281483,
                0.30480000376701355
            ],
            "min" : [
                -0.30480000376701355,
                0.012458786368370056,
                -0.30480000376701355
            ],
            "type" : "VEC3"
        },
        {
            "bufferView" : 20,
            "componentType" : 5126,
            "count" : 768,
            "type" : "VEC3"
        },
        {
            "bufferView" : 21,
            "componentType" : 5126,
            "count" : 768,
            "type" : "VEC2"
        },
        {
            "bufferView" : 22,
            "componentType" : 5123,
            "count" : 1524,
            "type" : "SCALAR"
        },
        {
            "bufferView" : 23,
            "componentType" : 5126,
            "count" : 879,
            "max" : [
                -3.1466193199157715,
                3.052293539047241,
                -1.6003297567367554
            ],
            "min" : [
                -3.822955846786499,
                -3.043705463409424,
                -8.50913143157959
            ],
            "type" : "VEC3"
        },
        {
            "bufferView" : 24,
            "componentType" : 5126,
            "count" : 879,
            "type" : "VEC3"
        },
        {
            "bufferView" : 25,
            "componentType" : 5126,
            "count" : 879,
            "type" : "VEC2"
        },
        {
            "bufferView" : 26,
            "componentType" : 5123,
            "count" : 1638,
            "type" : "SCALAR"
        },
        {
            "bufferView" : 27,
            "componentType" : 5126,
            "count" : 109,
            "max" : [
                0.30479997396469116,
                -0.7352549433708191,
                0.802078127861023
            ],
            "min" : [
                -0.2938123941421509,
                -0.7451531887054443,
                0.36298760771751404
            ],
            "type" : "VEC3"
        },
        {
            "bufferView" : 28,
            "componentType" : 5126,
            "count" : 109,
            "type" : "VEC3"
        },
        {
            "bufferView" : 29,
            "componentType" : 5126,
            "count" : 109,
            "type" : "VEC2"
        },
        {
            "bufferView" : 30,
            "componentType" : 5123,
            "count" : 234,
            "type" : "SCALAR"
        },
        {
            "bufferView" : 31,
            "componentType" : 5126,
            "count" : 128,
            "max" : [
                0.30480000376701355,
                0.012458786368370056,
                0.30480000376701355
            ],
            "min" : [
                -0.30480000376701355,
                0.012458786368370056,
                -0.30480000376701355
            ],
            "type" : "VEC3"
        },
        {
            "bufferView" : 32,
            "componentType" : 5126,
            "count" : 128,
            "type" : "VEC3"
        },
        {
            "bufferView" : 33,
            "componentType" : 5126,
            "count" : 128,
            "type" : "VEC2"
        },
        {
            "bufferView" : 34,
            "componentType" : 5123,
            "count" : 378,
            "type" : "SCALAR"
        }
    ],
    "bufferViews" : [
        {
            "buffer" : 0,
            "byteLength" : 576,
            "byteOffset" : 0
        },
        {
            "buffer" : 0,
            "byteLength" : 576,
            "byteOffset" : 576
        },
        {
            "buffer" : 0,
            "byteLength" : 384,
            "byteOffset" : 1152
        },
        {
            "buffer" : 0,
            "byteLength" : 144,
            "byteOffset" : 1536
        },
        {
            "buffer" : 0,
            "byteLength" : 6360,
            "byteOffset" : 1680
        },
        {
            "buffer" : 0,
            "byteLength" : 6360,
            "byteOffset" : 8040
        },
        {
            "buffer" : 0,
            "byteLength" : 4240,
            "byteOffset" : 14400
        },
        {
            "buffer" : 0,
            "byteLength" : 2100,
            "byteOffset" : 18640
        },
        {
            "buffer" : 0,
            "byteLength" : 6360,
            "byteOffset" : 20740
        },
        {
            "buffer" : 0,
            "byteLength" : 6360,
            "byteOffset" : 27100
        },
        {
            "buffer" : 0,
            "byteLength" : 4240,
            "byteOffset" : 33460
        },
        {
            "buffer" : 0,
            "byteLength" : 6900,
            "byteOffset" : 37700
        },
        {
            "buffer" : 0,
            "byteLength" : 6900,
            "byteOffset" : 44600
        },
        {
            "buffer" : 0,
            "byteLength" : 4600,
            "byteOffset" : 51500
        },
        {
            "buffer" : 0,
            "byteLength" : 2088,
            "byteOffset" : 56100
        },
        {
            "buffer" : 0,
            "byteLength" : 20844,
            "byteOffset" : 58188
        },
        {
            "buffer" : 0,
            "byteLength" : 20844,
            "byteOffset" : 79032
        },
        {
            "buffer" : 0,
            "byteLength" : 13896,
            "byteOffset" : 99876
        },
        {
            "buffer" : 0,
            "byteLength" : 6936,
            "byteOffset" : 113772
        },
        {
            "buffer" : 0,
            "byteLength" : 9216,
            "byteOffset" : 120708
        },
        {
            "buffer" : 0,
            "byteLength" : 9216,
            "byteOffset" : 129924
        },
        {
            "buffer" : 0,
            "byteLength" : 6144,
            "byteOffset" : 139140
        },
        {
            "buffer" : 0,
            "byteLength" : 3048,
            "byteOffset" : 145284
        },
        {
            "buffer" : 0,
            "byteLength" : 10548,
            "byteOffset" : 148332
        },
        {
            "buffer" : 0,
            "byteLength" : 10548,
            "byteOffset" : 158880
        },
        {
            "buffer" : 0,
            "byteLength" : 7032,
            "byteOffset" : 169428
        },
        {
            "buffer" : 0,
            "byteLength" : 3276,
            "byteOffset" : 176460
        },
        {
            "buffer" : 0,
            "byteLength" : 1308,
            "byteOffset" : 179736
        },
        {
            "buffer" : 0,
            "byteLength" : 1308,
            "byteOffset" : 181044
        },
        {
            "buffer" : 0,
            "byteLength" : 872,
            "byteOffset" : 182352
        },
        {
            "buffer" : 0,
            "byteLength" : 468,
            "byteOffset" : 183224
        },
        {
            "buffer" : 0,
            "byteLength" : 1536,
            "byteOffset" : 183692
        },
        {
            "buffer" : 0,
            "byteLength" : 1536,
            "byteOffset" : 185228
        },
        {
            "buffer" : 0,
            "byteLength" : 1024,
            "byteOffset" : 186764
        },
        {
            "buffer" : 0,
            "byteLength" : 756,
            "byteOffset" : 187788
        }
    ],
    "buffers" : [
        {
            "byteLength" : 188544,
            "uri" : "data:application/octet-stream;base64,"
        }
    ]
}
