{
    "asset" : {
        "generator" : "Khronos glTF Blender I/O v1.7.33",
        "version" : "2.0"
    },
    "scene" : 0,
    "scenes" : [
        {
            "name" : "Scene",
            "nodes" : [
                0,
                1,
                2,
                3,
                4
            ]
        }
    ],
    "nodes" : [
        {
            "mesh" : 0,
            "name" : "Case Right Plastic",
            "rotation" : [
                1,
                0,
                0,
                -1.6292068494294654e-07
            ],
            "translation" : [
                0,
                0,
                1.8287999629974365
            ]
        },
        {
            "mesh" : 1,
            "name" : "Case Right Color",
            "rotation" : [
                0.5,
                0.5,
                -0.5,
                0.4999999701976776
            ],
            "scale" : [
                0.25,
                0.125,
                0.25
            ],
            "translation" : [
                0.02539999969303608,
                0,
                0
            ]
        },
        {
            "mesh" : 2,
            "name" : "CD DIsk",
            "rotation" : [
                0,
                0,
                -0.7071067690849304,
                0.7071068286895752
            ],
            "scale" : [
                2.3499999046325684,
                1,
                2.3499999046325684
            ],
            "translation" : [
                0.01245878729969263,
                0,
                0
            ]
        },
        {
            "mesh" : 3,
            "name" : "Case Left Plastic",
            "rotation" : [
                0.8660253882408142,
                0,
                -0.5,
                -3.475699941191124e-07
            ],
            "scale" : [
                0.20655399560928345,
                0.25,
                0.25
            ],
            "translation" : [
                -0.7111999988555908,
                0,
                0.45719999074935913
            ]
        },
        {
            "mesh" : 4,
            "name" : "Paper",
            "rotation" : [
                -0.3535534143447876,
                0.3535533845424652,
                -0.6123723983764648,
                0.6123724579811096
            ],
            "scale" : [
                2.450000047683716,
                1,
                2.5
            ],
            "translation" : [
                -0.7111999988555908,
                0,
                0.45719999074935913
            ]
        }
    ],
    "materials" : [
        {
            "doubleSided" : true,
            "name" : "Material.002",
            "pbrMetallicRoughness" : {
                "baseColorFactor" : [
                    0.800000011920929,
                    0.800000011920929,
                    0.800000011920929,
                    1
                ],
                "metallicFactor" : 0,
                "roughnessFactor" : 0.4000000059604645
            }
        },
        {
            "doubleSided" : true,
            "name" : "Material",
            "pbrMetallicRoughness" : {
                "baseColorFactor" : [
                    0.800000011920929,
                    0.800000011920929,
                    0.800000011920929,
                    1
                ],
                "metallicFactor" : 0,
                "roughnessFactor" : 0.4000000059604645
            }
        },
        {
            "doubleSided" : true,
            "name" : "Material.004",
            "pbrMetallicRoughness" : {
                "baseColorFactor" : [
                    0.800000011920929,
                    0.800000011920929,
                    0.800000011920929,
                    1
                ],
                "metallicFactor" : 0,
                "roughnessFactor" : 0.4000000059604645
            }
        }
    ],
    "meshes" : [
        {
            "name" : "Cube.002",
            "primitives" : [
                {
                    "attributes" : {
                        "POSITION" : 0,
                        "NORMAL" : 1,
                        "TEXCOORD_0" : 2
                    },
                    "indices" : 3,
                    "material" : 0
                }
            ]
        },
        {
            "name" : "Cylinder.005",
            "primitives" : [
                {
                    "attributes" : {
                        "POSITION" : 4,
                        "NORMAL" : 5,
                        "TEXCOORD_0" : 6
                    },
                    "indices" : 7,
                    "material" : 1
                }
            ]
        },
        {
            "name" : "Circle",
            "primitives" : [
                {
                    "attributes" : {
                        "POSITION" : 8,
                        "NORMAL" : 9,
                        "TEXCOORD_0" : 10
                    },
                    "indices" : 11
                }
            ]
        },
        {
            "name" : "Cube.007",
            "primitives" : [
                {
                    "attributes" : {
                        "POSITION" : 12,
                        "NORMAL" : 13,
                        "TEXCOORD_0" : 14
                    },
                    "indices" : 15,
                    "material" : 2
                }
            ]
        },
        {
            "name" : "Plane",
            "primitives" : [
                {
                    "attributes" : {
                        "POSITION" : 16,
                        "NORMAL" : 17,
                        "TEXCOORD_0" : 18
                    },
                    "indices" : 19
                }
            ]
        }
    ],
    "accessors" : [
        {
            "bufferView" : 0,
            "componentType" : 5126,
            "count" : 578,
            "max" : [
                0.10159999877214432,
                0.7620012760162354,
                2.6416001319885254
            ],
            "min" : [
                -0.038100000470876694,
                -0.7619999647140503,
                0.9143998026847839
            ],
            "type" : "VEC3"
        },
        {
            "bufferView" : 1,
            "componentType" : 5126,
            "count" : 578,
            "type" : "VEC3"
        },
        {
            "bufferView" : 2,
            "componentType" : 5126,
            "count" : 578,
            "type" : "VEC2"
        },
        {
            "bufferView" : 3,
            "componentType" : 5123,
            "count" : 1038,
            "type" : "SCALAR"
        },
        {
            "bufferView" : 4,
            "componentType" : 5126,
            "count" : 1741,
            "max" : [
                3.149600028991699,
                0.6096006035804749,
                2.8735694885253906
            ],
            "min" : [
                -3.555999755859375,
                -0.40640056133270264,
                -2.8735694885253906
            ],
            "type" : "VEC3"
        },
        {
            "bufferView" : 5,
            "componentType" : 5126,
            "count" : 1741,
            "type" : "VEC3"
        },
        {
            "bufferView" : 6,
            "componentType" : 5126,
            "count" : 1741,
            "type" : "VEC2"
        },
        {
            "bufferView" : 7,
            "componentType" : 5123,
            "count" : 3468,
            "type" : "SCALAR"
        },
        {
            "bufferView" : 8,
            "componentType" : 5126,
            "count" : 128,
            "max" : [
                0.30480000376701355,
                0,
                0.30480000376701355
            ],
            "min" : [
                -0.30480000376701355,
                0,
                -0.30480000376701355
            ],
            "type" : "VEC3"
        },
        {
            "bufferView" : 9,
            "componentType" : 5126,
            "count" : 128,
            "type" : "VEC3"
        },
        {
            "bufferView" : 10,
            "componentType" : 5126,
            "count" : 128,
            "type" : "VEC2"
        },
        {
            "bufferView" : 11,
            "componentType" : 5123,
            "count" : 378,
            "type" : "SCALAR"
        },
        {
            "bufferView" : 12,
            "componentType" : 5126,
            "count" : 876,
            "max" : [
                0.4918810725212097,
                3.0522923469543457,
                -3.149599075317383
            ],
            "min" : [
                -0.18445540964603424,
                -3.0437066555023193,
                -10.058401107788086
            ],
            "type" : "VEC3"
        },
        {
            "bufferView" : 13,
            "componentType" : 5126,
            "count" : 876,
            "type" : "VEC3"
        },
        {
            "bufferView" : 14,
            "componentType" : 5126,
            "count" : 876,
            "type" : "VEC2"
        },
        {
            "bufferView" : 15,
            "componentType" : 5123,
            "count" : 1650,
            "type" : "SCALAR"
        },
        {
            "bufferView" : 16,
            "componentType" : 5126,
            "count" : 4,
            "max" : [
                0.30480000376701355,
                0.012980669736862183,
                0.9846032857894897
            ],
            "min" : [
                -0.30480000376701355,
                0.012980669736862183,
                0.37500330805778503
            ],
            "type" : "VEC3"
        },
        {
            "bufferView" : 17,
            "componentType" : 5126,
            "count" : 4,
            "type" : "VEC3"
        },
        {
            "bufferView" : 18,
            "componentType" : 5126,
            "count" : 4,
            "type" : "VEC2"
        },
        {
            "bufferView" : 19,
            "componentType" : 5123,
            "count" : 6,
            "type" : "SCALAR"
        }
    ],
    "bufferViews" : [
        {
            "buffer" : 0,
            "byteLength" : 6936,
            "byteOffset" : 0
        },
        {
            "buffer" : 0,
            "byteLength" : 6936,
            "byteOffset" : 6936
        },
        {
            "buffer" : 0,
            "byteLength" : 4624,
            "byteOffset" : 13872
        },
        {
            "buffer" : 0,
            "byteLength" : 2076,
            "byteOffset" : 18496
        },
        {
            "buffer" : 0,
            "byteLength" : 20892,
            "byteOffset" : 20572
        },
        {
            "buffer" : 0,
            "byteLength" : 20892,
            "byteOffset" : 41464
        },
        {
            "buffer" : 0,
            "byteLength" : 13928,
            "byteOffset" : 62356
        },
        {
            "buffer" : 0,
            "byteLength" : 6936,
            "byteOffset" : 76284
        },
        {
            "buffer" : 0,
            "byteLength" : 1536,
            "byteOffset" : 83220
        },
        {
            "buffer" : 0,
            "byteLength" : 1536,
            "byteOffset" : 84756
        },
        {
            "buffer" : 0,
            "byteLength" : 1024,
            "byteOffset" : 86292
        },
        {
            "buffer" : 0,
            "byteLength" : 756,
            "byteOffset" : 87316
        },
        {
            "buffer" : 0,
            "byteLength" : 10512,
            "byteOffset" : 88072
        },
        {
            "buffer" : 0,
            "byteLength" : 10512,
            "byteOffset" : 98584
        },
        {
            "buffer" : 0,
            "byteLength" : 7008,
            "byteOffset" : 109096
        },
        {
            "buffer" : 0,
            "byteLength" : 3300,
            "byteOffset" : 116104
        },
        {
            "buffer" : 0,
            "byteLength" : 48,
            "byteOffset" : 119404
        },
        {
            "buffer" : 0,
            "byteLength" : 48,
            "byteOffset" : 119452
        },
        {
            "buffer" : 0,
            "byteLength" : 32,
            "byteOffset" : 119500
        },
        {
            "buffer" : 0,
            "byteLength" : 12,
            "byteOffset" : 119532
        }
    ],
    "buffers" : [
        {
            "byteLength" : 119544,
            "uri" : "data:application/octet-stream;base64,"
        }
    ]
}
