{
    "asset" : {
        "generator" : "Khronos glTF Blender I/O v1.7.33",
        "version" : "2.0"
    },
    "scene" : 0,
    "scenes" : [
        {
            "name" : "Scene",
            "nodes" : [
                0,
                1,
                2,
                3,
                4,
                5,
                6,
                7,
                8,
                9
            ]
        }
    ],
    "nodes" : [
        {
            "mesh" : 0,
            "name" : "Pen Base",
            "rotation" : [
                -0.04357786849141121,
                0.0019026508089154959,
                -0.04357786849141121,
                0.9980973601341248
            ],
            "scale" : [
                0.7908033728599548,
                2.5,
                0.7908033728599548
            ],
            "translation" : [
                1.5239999294281006,
                -1.2192000150680542,
                1.2192000150680542
            ]
        },
        {
            "mesh" : 1,
            "name" : "Pen Tip",
            "rotation" : [
                -0.04357786849141121,
                0.0019026508089154959,
                -0.04357786849141121,
                0.9980973601341248
            ],
            "scale" : [
                0.7908033728599548,
                0.29632437229156494,
                0.7908033728599548
            ],
            "translation" : [
                1.5239999294281006,
                -1.2192000150680542,
                1.2192000150680542
            ]
        },
        {
            "mesh" : 2,
            "name" : "Pen Cap",
            "rotation" : [
                -0.04357786849141121,
                0.0019026508089154959,
                -0.04357786849141121,
                0.9980973601341248
            ],
            "scale" : [
                0.7908033728599548,
                2.5,
                0.7908033728599548
            ],
            "translation" : [
                1.5239999294281006,
                -1.2192000150680542,
                1.2192000150680542
            ]
        },
        {
            "mesh" : 3,
            "name" : "Note",
            "rotation" : [
                0,
                -0.2164396196603775,
                0,
                0.9762960076332092
            ],
            "scale" : [
                1.75,
                1,
                1
            ],
            "translation" : [
                1.3716000318527222,
                0.45719999074935913,
                0.6096000075340271
            ]
        },
        {
            "mesh" : 4,
            "name" : "CD Disk",
            "rotation" : [
                0,
                0.7071068286895752,
                -0.7071068286895752,
                -1.1520232590100932e-07
            ],
            "scale" : [
                2.3999998569488525,
                1,
                2.3999998569488525
            ],
            "translation" : [
                0,
                0,
                0.012233160436153412
            ]
        },
        {
            "mesh" : 5,
            "name" : "CD Disk Center",
            "rotation" : [
                0,
                0.7071068286895752,
                -0.7071068286895752,
                -1.1520232590100932e-07
            ],
            "scale" : [
                0.550000011920929,
                10.000000953674316,
                0.550000011920929
            ],
            "translation" : [
                0,
                0,
                0.1265796273946762
            ]
        },
        {
            "mesh" : 6,
            "name" : "CD Disk Back",
            "rotation" : [
                0,
                0.7071068286895752,
                -0.7071068286895752,
                -1.1520232590100932e-07
            ],
            "scale" : [
                2.3999998569488525,
                1,
                2.3999998569488525
            ],
            "translation" : [
                0,
                0,
                0.009362881071865559
            ]
        },
        {
            "mesh" : 7,
            "name" : "Paper",
            "rotation" : [
                -0.0858316496014595,
                -0.17298738658428192,
                -0.015134435147047043,
                0.981060266494751
            ],
            "scale" : [
                1.1250001192092896,
                1,
                1
            ],
            "translation" : [
                0.6096000075340271,
                -0.4572000205516815,
                0.6096000075340271
            ]
        },
        {
            "mesh" : 8,
            "name" : "Paper Red Line",
            "rotation" : [
                -0.0858316496014595,
                -0.17298738658428192,
                -0.015134435147047043,
                0.981060266494751
            ],
            "scale" : [
                1.1250001192092896,
                1,
                1
            ],
            "translation" : [
                0.6092272996902466,
                -0.45719999074935913,
                0.6107181906700134
            ]
        },
        {
            "mesh" : 9,
            "name" : "Paper Blue Lines",
            "rotation" : [
                -0.0858316496014595,
                -0.17298738658428192,
                -0.015134435147047043,
                0.981060266494751
            ],
            "scale" : [
                1.1249994039535522,
                1,
                1
            ],
            "translation" : [
                0.6092272996902466,
                -0.45719999074935913,
                0.6107181906700134
            ]
        }
    ],
    "meshes" : [
        {
            "name" : "Cylinder.007",
            "primitives" : [
                {
                    "attributes" : {
                        "POSITION" : 0,
                        "NORMAL" : 1,
                        "TEXCOORD_0" : 2
                    },
                    "indices" : 3
                }
            ]
        },
        {
            "name" : "Cylinder.008",
            "primitives" : [
                {
                    "attributes" : {
                        "POSITION" : 4,
                        "NORMAL" : 5,
                        "TEXCOORD_0" : 6
                    },
                    "indices" : 7
                }
            ]
        },
        {
            "name" : "Cylinder.009",
            "primitives" : [
                {
                    "attributes" : {
                        "POSITION" : 8,
                        "NORMAL" : 9,
                        "TEXCOORD_0" : 10
                    },
                    "indices" : 11
                }
            ]
        },
        {
            "name" : "Plane.009",
            "primitives" : [
                {
                    "attributes" : {
                        "POSITION" : 12,
                        "NORMAL" : 13,
                        "TEXCOORD_0" : 14
                    },
                    "indices" : 15
                }
            ]
        },
        {
            "name" : "Circle",
            "primitives" : [
                {
                    "attributes" : {
                        "POSITION" : 16,
                        "NORMAL" : 17,
                        "TEXCOORD_0" : 18
                    },
                    "indices" : 19
                }
            ]
        },
        {
            "name" : "Circle.001",
            "primitives" : [
                {
                    "attributes" : {
                        "POSITION" : 20,
                        "NORMAL" : 21,
                        "TEXCOORD_0" : 22
                    },
                    "indices" : 23
                }
            ]
        },
        {
            "name" : "Circle.005",
            "primitives" : [
                {
                    "attributes" : {
                        "POSITION" : 24,
                        "NORMAL" : 25,
                        "TEXCOORD_0" : 26
                    },
                    "indices" : 27
                }
            ]
        },
        {
            "name" : "Plane.006",
            "primitives" : [
                {
                    "attributes" : {
                        "POSITION" : 28,
                        "NORMAL" : 29,
                        "TEXCOORD_0" : 30
                    },
                    "indices" : 31
                }
            ]
        },
        {
            "name" : "Plane.007",
            "primitives" : [
                {
                    "attributes" : {
                        "POSITION" : 32,
                        "NORMAL" : 33,
                        "TEXCOORD_0" : 34
                    },
                    "indices" : 35
                }
            ]
        },
        {
            "name" : "Plane.008",
            "primitives" : [
                {
                    "attributes" : {
                        "POSITION" : 36,
                        "NORMAL" : 37,
                        "TEXCOORD_0" : 38
                    },
                    "indices" : 39
                }
            ]
        }
    ],
    "accessors" : [
        {
            "bufferView" : 0,
            "componentType" : 5126,
            "count" : 80,
            "max" : [
                0.04913224279880524,
                0.39607277512550354,
                0.056733399629592896
            ],
            "min" : [
                -0.04913224279880524,
                -0.24383997917175293,
                -0.056733399629592896
            ],
            "type" : "VEC3"
        },
        {
            "bufferView" : 1,
            "componentType" : 5126,
            "count" : 80,
            "type" : "VEC3"
        },
        {
            "bufferView" : 2,
            "componentType" : 5126,
            "count" : 80,
            "type" : "VEC2"
        },
        {
            "bufferView" : 3,
            "componentType" : 5123,
            "count" : 132,
            "type" : "SCALAR"
        },
        {
            "bufferView" : 4,
            "componentType" : 5126,
            "count" : 132,
            "max" : [
                0.04306726157665253,
                -1.8857710361480713,
                0.049729421734809875
            ],
            "min" : [
                -0.04306726157665253,
                -2.914973020553589,
                -0.049730151891708374
            ],
            "type" : "VEC3"
        },
        {
            "bufferView" : 5,
            "componentType" : 5126,
            "count" : 132,
            "type" : "VEC3"
        },
        {
            "bufferView" : 6,
            "componentType" : 5126,
            "count" : 132,
            "type" : "VEC2"
        },
        {
            "bufferView" : 7,
            "componentType" : 5123,
            "count" : 204,
            "type" : "SCALAR"
        },
        {
            "bufferView" : 8,
            "componentType" : 5126,
            "count" : 154,
            "max" : [
                0.07295751571655273,
                0.5078079700469971,
                0.097999706864357
            ],
            "min" : [
                -0.0491325743496418,
                0.335582435131073,
                -0.056733451783657074
            ],
            "type" : "VEC3"
        },
        {
            "bufferView" : 9,
            "componentType" : 5126,
            "count" : 154,
            "type" : "VEC3"
        },
        {
            "bufferView" : 10,
            "componentType" : 5126,
            "count" : 154,
            "type" : "VEC2"
        },
        {
            "bufferView" : 11,
            "componentType" : 5123,
            "count" : 240,
            "type" : "SCALAR"
        },
        {
            "bufferView" : 12,
            "componentType" : 5126,
            "count" : 24,
            "max" : [
                0.30480000376701355,
                0.30480000376701355,
                1.3323231407014191e-08
            ],
            "min" : [
                -0.30480000376701355,
                -0.30480000376701355,
                -0.006096013356000185
            ],
            "type" : "VEC3"
        },
        {
            "bufferView" : 13,
            "componentType" : 5126,
            "count" : 24,
            "type" : "VEC3"
        },
        {
            "bufferView" : 14,
            "componentType" : 5126,
            "count" : 24,
            "type" : "VEC2"
        },
        {
            "bufferView" : 15,
            "componentType" : 5123,
            "count" : 36,
            "type" : "SCALAR"
        },
        {
            "bufferView" : 16,
            "componentType" : 5126,
            "count" : 1544,
            "max" : [
                0.30480000376701355,
                0.015506786294281483,
                0.30480000376701355
            ],
            "min" : [
                -0.30480000376701355,
                0.012458786368370056,
                -0.30480000376701355
            ],
            "type" : "VEC3"
        },
        {
            "bufferView" : 17,
            "componentType" : 5126,
            "count" : 1544,
            "type" : "VEC3"
        },
        {
            "bufferView" : 18,
            "componentType" : 5126,
            "count" : 1544,
            "type" : "VEC2"
        },
        {
            "bufferView" : 19,
            "componentType" : 5123,
            "count" : 3072,
            "type" : "SCALAR"
        },
        {
            "bufferView" : 20,
            "componentType" : 5126,
            "count" : 1544,
            "max" : [
                0.30480000376701355,
                0.013525585643947124,
                0.30480000376701355
            ],
            "min" : [
                -0.30480000376701355,
                0.012458785437047482,
                -0.30480000376701355
            ],
            "type" : "VEC3"
        },
        {
            "bufferView" : 21,
            "componentType" : 5126,
            "count" : 1544,
            "type" : "VEC3"
        },
        {
            "bufferView" : 22,
            "componentType" : 5126,
            "count" : 1544,
            "type" : "VEC2"
        },
        {
            "bufferView" : 23,
            "componentType" : 5123,
            "count" : 3072,
            "type" : "SCALAR"
        },
        {
            "bufferView" : 24,
            "componentType" : 5126,
            "count" : 1544,
            "max" : [
                0.30480000376701355,
                0.015506786294281483,
                0.30480000376701355
            ],
            "min" : [
                -0.30480000376701355,
                0.012458786368370056,
                -0.30480000376701355
            ],
            "type" : "VEC3"
        },
        {
            "bufferView" : 25,
            "componentType" : 5126,
            "count" : 1544,
            "type" : "VEC3"
        },
        {
            "bufferView" : 26,
            "componentType" : 5126,
            "count" : 1544,
            "type" : "VEC2"
        },
        {
            "bufferView" : 27,
            "componentType" : 5123,
            "count" : 3072,
            "type" : "SCALAR"
        },
        {
            "bufferView" : 28,
            "componentType" : 5126,
            "count" : 64,
            "max" : [
                0.7450665831565857,
                0.9143999814987183,
                3.9969691556507314e-08
            ],
            "min" : [
                -0.6096000671386719,
                -1.0667998790740967,
                -0.0060960398986935616
            ],
            "type" : "VEC3"
        },
        {
            "bufferView" : 29,
            "componentType" : 5126,
            "count" : 64,
            "type" : "VEC3"
        },
        {
            "bufferView" : 30,
            "componentType" : 5126,
            "count" : 64,
            "type" : "VEC2"
        },
        {
            "bufferView" : 31,
            "componentType" : 5123,
            "count" : 96,
            "type" : "SCALAR"
        },
        {
            "bufferView" : 32,
            "componentType" : 5126,
            "count" : 28,
            "max" : [
                -0.4963270425796509,
                0.9143999814987183,
                3.9969691556507314e-08
            ],
            "min" : [
                -0.5186832547187805,
                -1.0667999982833862,
                -3.9969691556507314e-08
            ],
            "type" : "VEC3"
        },
        {
            "bufferView" : 33,
            "componentType" : 5126,
            "count" : 28,
            "type" : "VEC3"
        },
        {
            "bufferView" : 34,
            "componentType" : 5126,
            "count" : 28,
            "type" : "VEC2"
        },
        {
            "bufferView" : 35,
            "componentType" : 5123,
            "count" : 42,
            "type" : "SCALAR"
        },
        {
            "bufferView" : 36,
            "componentType" : 5126,
            "count" : 576,
            "max" : [
                0.7453979253768921,
                0.7619807720184326,
                3.370131196334114e-08
            ],
            "min" : [
                -0.6096000075340271,
                -0.9997872114181519,
                3.244763746579338e-08
            ],
            "type" : "VEC3"
        },
        {
            "bufferView" : 37,
            "componentType" : 5126,
            "count" : 576,
            "type" : "VEC3"
        },
        {
            "bufferView" : 38,
            "componentType" : 5126,
            "count" : 576,
            "type" : "VEC2"
        },
        {
            "bufferView" : 39,
            "componentType" : 5123,
            "count" : 864,
            "type" : "SCALAR"
        }
    ],
    "bufferViews" : [
        {
            "buffer" : 0,
            "byteLength" : 960,
            "byteOffset" : 0
        },
        {
            "buffer" : 0,
            "byteLength" : 960,
            "byteOffset" : 960
        },
        {
            "buffer" : 0,
            "byteLength" : 640,
            "byteOffset" : 1920
        },
        {
            "buffer" : 0,
            "byteLength" : 264,
            "byteOffset" : 2560
        },
        {
            "buffer" : 0,
            "byteLength" : 1584,
            "byteOffset" : 2824
        },
        {
            "buffer" : 0,
            "byteLength" : 1584,
            "byteOffset" : 4408
        },
        {
            "buffer" : 0,
            "byteLength" : 1056,
            "byteOffset" : 5992
        },
        {
            "buffer" : 0,
            "byteLength" : 408,
            "byteOffset" : 7048
        },
        {
            "buffer" : 0,
            "byteLength" : 1848,
            "byteOffset" : 7456
        },
        {
            "buffer" : 0,
            "byteLength" : 1848,
            "byteOffset" : 9304
        },
        {
            "buffer" : 0,
            "byteLength" : 1232,
            "byteOffset" : 11152
        },
        {
            "buffer" : 0,
            "byteLength" : 480,
            "byteOffset" : 12384
        },
        {
            "buffer" : 0,
            "byteLength" : 288,
            "byteOffset" : 12864
        },
        {
            "buffer" : 0,
            "byteLength" : 288,
            "byteOffset" : 13152
        },
        {
            "buffer" : 0,
            "byteLength" : 192,
            "byteOffset" : 13440
        },
        {
            "buffer" : 0,
            "byteLength" : 72,
            "byteOffset" : 13632
        },
        {
            "buffer" : 0,
            "byteLength" : 18528,
            "byteOffset" : 13704
        },
        {
            "buffer" : 0,
            "byteLength" : 18528,
            "byteOffset" : 32232
        },
        {
            "buffer" : 0,
            "byteLength" : 12352,
            "byteOffset" : 50760
        },
        {
            "buffer" : 0,
            "byteLength" : 6144,
            "byteOffset" : 63112
        },
        {
            "buffer" : 0,
            "byteLength" : 18528,
            "byteOffset" : 69256
        },
        {
            "buffer" : 0,
            "byteLength" : 18528,
            "byteOffset" : 87784
        },
        {
            "buffer" : 0,
            "byteLength" : 12352,
            "byteOffset" : 106312
        },
        {
            "buffer" : 0,
            "byteLength" : 6144,
            "byteOffset" : 118664
        },
        {
            "buffer" : 0,
            "byteLength" : 18528,
            "byteOffset" : 124808
        },
        {
            "buffer" : 0,
            "byteLength" : 18528,
            "byteOffset" : 143336
        },
        {
            "buffer" : 0,
            "byteLength" : 12352,
            "byteOffset" : 161864
        },
        {
            "buffer" : 0,
            "byteLength" : 6144,
            "byteOffset" : 174216
        },
        {
            "buffer" : 0,
            "byteLength" : 768,
            "byteOffset" : 180360
        },
        {
            "buffer" : 0,
            "byteLength" : 768,
            "byteOffset" : 181128
        },
        {
            "buffer" : 0,
            "byteLength" : 512,
            "byteOffset" : 181896
        },
        {
            "buffer" : 0,
            "byteLength" : 192,
            "byteOffset" : 182408
        },
        {
            "buffer" : 0,
            "byteLength" : 336,
            "byteOffset" : 182600
        },
        {
            "buffer" : 0,
            "byteLength" : 336,
            "byteOffset" : 182936
        },
        {
            "buffer" : 0,
            "byteLength" : 224,
            "byteOffset" : 183272
        },
        {
            "buffer" : 0,
            "byteLength" : 84,
            "byteOffset" : 183496
        },
        {
            "buffer" : 0,
            "byteLength" : 6912,
            "byteOffset" : 183580
        },
        {
            "buffer" : 0,
            "byteLength" : 6912,
            "byteOffset" : 190492
        },
        {
            "buffer" : 0,
            "byteLength" : 4608,
            "byteOffset" : 197404
        },
        {
            "buffer" : 0,
            "byteLength" : 1728,
            "byteOffset" : 202012
        }
    ],
    "buffers" : [
        {
            "byteLength" : 203740,
            "uri" : "data:application/octet-stream;base64,"
        }
    ]
}
